<?xml version="1.0" encoding="UTF-8" standalone="no"?>
<!DOCTYPE svg PUBLIC "-//W3C//DTD SVG 1.1//EN" "http://www.w3.org/Graphics/SVG/1.1/DTD/svg11.dtd">
<svg width="100%" height="100%" viewBox="0 0 50 52" version="1.1" xmlns="http://www.w3.org/2000/svg" xmlns:xlink="http://www.w3.org/1999/xlink" xml:space="preserve" xmlns:serif="http://www.serif.com/" style="fill-rule:evenodd;clip-rule:evenodd;stroke-linejoin:round;stroke-miterlimit:2;">
    <g transform="matrix(4.29585,0,0,2.8486,-4.23205,-3.74525)">
        <rect x="0.985" y="1.315" width="11.639" height="18.255" style="fill:rgb(235,235,235);"/>
    </g>
    <g transform="matrix(0.1,0,0,-0.1,0,52)">
        <path d="M220,499C201,494 162,488 133,486C54,479 20,453 20,400C20,376 27,368 82,326C102,311 130,276 143,249C164,207 167,190 163,129C159,53 166,35 209,19C225,12 243,13 262,21C295,35 300,56 268,45C198,24 178,44 184,133C188,193 185,211 162,258C146,292 122,323 97,341L57,370L101,390C157,415 181,415 232,389C296,356 349,340 355,350C359,356 348,365 333,371C318,377 280,393 250,406C220,419 188,431 180,432C160,435 71,410 64,399C54,383 40,390 40,410C40,438 77,458 140,464C170,467 209,473 225,478C253,486 293,486 367,476C408,471 460,434 460,410C460,400 448,383 433,372C417,361 408,349 412,345C420,336 468,368 480,390C493,414 457,468 417,485C375,503 265,510 220,499Z" style="fill-rule:nonzero;"/>
    </g>
    <path d="M33.347,36.781L33.269,36.775L33.192,36.763L33.115,36.745L33.04,36.721L32.968,36.692L32.898,36.656L32.831,36.615L32.767,36.569L32.707,36.519L32.651,36.463L32.6,36.404L32.554,36.34L32.512,36.274L32.477,36.204L32.446,36.131L32.422,36.057L32.403,35.98L32.391,35.903L32.384,35.825L32.384,35.746L32.386,35.686L32.392,35.591L32.401,35.48L32.413,35.348L32.428,35.193L32.446,35.016L32.467,34.818L32.491,34.6L32.518,34.363L32.548,34.107L32.581,33.835L32.618,33.547L32.657,33.244L32.699,32.927L32.744,32.598L32.792,32.258L32.843,31.908L32.896,31.549L32.953,31.182L33.012,30.809L33.075,30.43L33.14,30.047L33.208,29.662L33.278,29.274L33.352,28.885L33.428,28.498L33.468,28.303L33.548,27.917L33.632,27.535L33.674,27.345L33.762,26.969L33.807,26.784L33.853,26.599L33.899,26.417L33.947,26.235L33.967,26.161L33.989,26.084L34.033,25.937L34.081,25.788L34.132,25.641L34.186,25.494L34.242,25.349L34.301,25.204L34.363,25.06L34.426,24.917L34.492,24.776L34.56,24.635L34.629,24.495L34.7,24.356L34.773,24.219L34.848,24.082L34.923,23.947L35,23.813L35.078,23.679L35.157,23.548L35.237,23.417L35.317,23.288L35.398,23.16L35.48,23.033L35.562,22.908L35.644,22.784L35.727,22.662L35.809,22.541L35.892,22.421L36.056,22.189L36.218,21.964L36.377,21.745L36.533,21.535L36.684,21.333L36.829,21.14L37.098,20.784L37.219,20.623L37.33,20.473L37.429,20.337L37.516,20.213L37.552,20.161L37.586,20.111L37.615,20.066L37.639,20.027L37.658,19.995L37.669,19.977L37.675,19.951L37.699,19.876L37.73,19.804L37.765,19.734L37.806,19.667L37.853,19.603L37.904,19.544L37.96,19.488L38.019,19.438L38.083,19.392L38.15,19.351L38.22,19.315L38.293,19.285L38.367,19.261L38.444,19.243L38.521,19.231L38.6,19.225L38.678,19.225L38.756,19.231L38.834,19.244L38.91,19.262L38.985,19.287L39.057,19.317L39.127,19.353L39.194,19.394L39.258,19.44L39.317,19.491L39.373,19.547L39.423,19.607L39.469,19.67L39.51,19.738L39.546,19.808L39.576,19.88L39.6,19.955L39.618,20.031L39.63,20.109L39.636,20.187L39.636,20.266L39.63,20.344L39.624,20.389L39.611,20.46L39.596,20.524L39.577,20.59L39.545,20.682L39.507,20.771L39.468,20.852L39.429,20.927L39.388,21L39.345,21.071L39.301,21.141L39.255,21.212L39.208,21.283L39.157,21.357L39.054,21.503L38.942,21.657L38.822,21.818L38.696,21.986L38.426,22.344L38.284,22.533L38.138,22.728L37.989,22.93L37.838,23.136L37.686,23.348L37.532,23.566L37.457,23.675L37.381,23.786L37.231,24.01L37.157,24.123L37.083,24.237L36.939,24.467L36.868,24.583L36.799,24.699L36.731,24.815L36.664,24.931L36.599,25.048L36.536,25.165L36.474,25.281L36.414,25.398L36.356,25.514L36.3,25.63L36.247,25.745L36.196,25.86L36.147,25.974L36.101,26.088L36.057,26.201L36.016,26.313L35.977,26.423L35.942,26.533L35.909,26.644L35.894,26.695L35.879,26.749L35.836,26.916L35.793,27.087L35.75,27.259L35.707,27.434L35.666,27.611L35.624,27.79L35.584,27.97L35.544,28.152L35.504,28.335L35.465,28.519L35.427,28.704L35.39,28.889L35.316,29.264L35.245,29.639L35.176,30.014L35.11,30.389L35.047,30.76L34.987,31.129L34.929,31.492L34.874,31.849L34.821,32.2L34.772,32.541L34.725,32.873L34.681,33.194L34.64,33.503L34.602,33.799L34.566,34.08L34.534,34.345L34.505,34.593L34.479,34.823L34.455,35.033L34.435,35.223L34.418,35.39L34.405,35.533L34.394,35.65L34.387,35.738L34.384,35.788L34.383,35.818L34.377,35.896L34.365,35.974L34.347,36.05L34.323,36.125L34.293,36.198L34.257,36.268L34.217,36.335L34.171,36.398L34.12,36.458L34.065,36.514L34.005,36.565L33.942,36.612L33.875,36.653L33.805,36.689L33.733,36.719L33.658,36.744L33.582,36.762L33.504,36.775L33.426,36.781L33.347,36.781ZM37.644,20.105L37.651,20.059L37.646,20.088L37.644,20.105Z"/>
</svg>
